<?xml version="1.0" encoding="utf-8"?>
<!-- Generator: Adobe Illustrator 19.2.1, SVG Export Plug-In . SVG Version: 6.00 Build 0)  -->
<svg version="1.1" id="Layer_1" xmlns="http://www.w3.org/2000/svg" xmlns:xlink="http://www.w3.org/1999/xlink" x="0px" y="0px"
	 viewBox="0 0 95 93" style="enable-background:new 0 0 95 93;" xml:space="preserve">
<style type="text/css">
	.st0{fill:#4D4D4F;}
	.st1{fill:none;stroke:#4D4D4F;stroke-width:5;stroke-miterlimit:10;}
</style>
<g>
	<g>
		<path class="st0" d="M82,13.8L82,13.8 M82,13.8L75.5,81l-43.9-4.3L16.7,43.9l-1.3-2.7L82,13.8 M82,8.8c-0.1,0-0.1,0-0.2,0
			c-0.6,0-1.3,0.2-1.8,0.4L13.6,36.6c-1.3,0.5-2.2,1.5-2.7,2.8c-0.6,1.2-0.5,2.6,0,3.9l1.3,2.7L27,78.8c0.7,1.6,2.3,2.7,4.1,2.9
			L75,86c0.2,0,0.3,0,0.5,0c1.2,0,2.3-0.4,3.2-1.1c1-0.8,1.7-2.1,1.8-3.4L87,14.4c0-0.2,0-0.4,0-0.7C87,11.1,84.8,8.8,82,8.8L82,8.8
			L82,8.8z M82,18.8L82,18.8L82,18.8L82,18.8z"/>
	</g>
	<polyline class="st1" points="75.5,81 57.8,45.3 82,13.8 	"/>
	<line class="st1" x1="15.5" y1="41.2" x2="59.2" y2="45.1"/>
</g>
</svg>
