<?xml version="1.0" ?><!DOCTYPE svg  PUBLIC '-//W3C//DTD SVG 1.1//EN'  'http://www.w3.org/Graphics/SVG/1.1/DTD/svg11.dtd'><svg enable-background="new 0 0 1024 1024" height="1024px" id="Layer_1" version="1.1" viewBox="0 0 1024 1024" width="1024px" xml:space="preserve" xmlns="http://www.w3.org/2000/svg" xmlns:xlink="http://www.w3.org/1999/xlink"><g id="Background"><path d="M983.766,312.727c-25.785-60.972-62.694-115.728-109.705-162.744   C827.05,102.966,772.299,66.049,711.329,40.257C648.194,13.548,581.14,0.004,512,0c-69.104,0-136.155,13.54-199.289,40.243   c-60.969,25.787-115.721,62.699-162.735,109.71c-47.014,47.011-83.929,101.761-109.72,162.728   C13.548,375.814,0.004,442.865,0,511.97c-0.004,69.109,13.533,136.165,40.234,199.304   c25.785,60.973,62.696,115.728,109.707,162.743c47.011,47.018,101.762,83.935,162.732,109.727   c63.136,26.708,130.19,40.253,199.323,40.257h0.009c69.104,0,136.153-13.54,199.288-40.243   c60.969-25.787,115.72-62.699,162.733-109.709c47.013-47.01,83.929-101.76,109.72-162.728   c26.708-63.134,40.251-130.186,40.255-199.29C1024.004,442.921,1010.467,375.866,983.766,312.727z M512.004,976.328h-0.03   c-124.026-0.007-240.627-48.313-328.323-136.019C95.957,752.604,47.665,635.999,47.672,511.973   c0.015-256.016,208.312-464.3,464.356-464.3c124.026,0.007,240.626,48.312,328.32,136.017   c87.695,87.706,135.986,204.311,135.979,328.337C976.313,768.043,768.018,976.328,512.004,976.328z" fill="#262626"/></g><g id="Share"><path d="M672.877,613.708c-22.307,0-42.835,7.61-59.134,20.374l-205.25-100.107   c0.166-2.303,0.254-4.628,0.254-6.974c0-1.098-0.025-2.189-0.062-3.28L617.389,421.93c15.668,11.118,34.815,17.654,55.489,17.654   c53.017,0,95.995-42.979,95.995-95.995c0-53.016-42.979-95.995-95.995-95.995s-95.995,42.979-95.995,95.995   c0,2.869,0.133,5.706,0.38,8.51L372.577,451.93c-16.409-13.093-37.201-20.924-59.825-20.924c-53.017,0-95.995,42.979-95.995,95.995   s42.979,95.995,95.995,95.995c21.258,0,40.897-6.915,56.804-18.61l207.421,101.166c-0.059,1.377-0.095,2.76-0.095,4.151   c0,53.017,42.979,95.995,95.995,95.995s95.995-42.979,95.995-95.995C768.872,656.687,725.894,613.708,672.877,613.708z" fill="#262626" id="Share_1_"/></g></svg>