<?xml version="1.0" encoding="utf-8"?>
<!-- Generator: Adobe Illustrator 19.2.1, SVG Export Plug-In . SVG Version: 6.00 Build 0)  -->
<svg version="1.1" id="Layer_1" xmlns="http://www.w3.org/2000/svg" xmlns:xlink="http://www.w3.org/1999/xlink" x="0px" y="0px"
	 viewBox="0 0 16 16" style="enable-background:new 0 0 16 16;" xml:space="preserve">
<style type="text/css">
	.st0{fill:#FFFFFF;}
</style>
<path class="st0" d="M3.5,13.9c0.2,0.2,0.5,0.2,0.7,0l3.4-3.4c0.2-0.2,0.5-0.2,0.7,0l3.4,3.4c0.2,0.2,0.5,0.2,0.7,0l1.4-1.4
	c0.2-0.2,0.2-0.5,0-0.7l-3.4-3.4c-0.2-0.2-0.2-0.5,0-0.7l3.4-3.4c0.2-0.2,0.2-0.5,0-0.7l-1.4-1.4c-0.2-0.2-0.5-0.2-0.7,0L8.4,5.6
	c-0.2,0.2-0.5,0.2-0.7,0L4.2,2.1C4,1.9,3.7,1.9,3.5,2.1L2.1,3.6c-0.2,0.2-0.2,0.5,0,0.7l3.4,3.4c0.2,0.2,0.2,0.5,0,0.7l-3.4,3.4
	c-0.2,0.2-0.2,0.5,0,0.7C2.1,12.5,3.5,13.9,3.5,13.9z"/>
</svg>
