<?xml version="1.0" encoding="utf-8"?>
<!-- Generator: Adobe Illustrator 19.2.1, SVG Export Plug-In . SVG Version: 6.00 Build 0)  -->
<svg version="1.1" id="Layer_1" xmlns="http://www.w3.org/2000/svg" xmlns:xlink="http://www.w3.org/1999/xlink" x="0px" y="0px"
	 viewBox="0 0 32 32" style="enable-background:new 0 0 32 32;" xml:space="preserve">
<style type="text/css">
	.st0{fill:none;}
	.st1{fill:#A1CC5C;}
	.st2{fill:#74A333;}
</style>
<g>
	<path class="st0" d="M16.2,20.2C16.2,20.2,16.2,20.2,16.2,20.2C16.2,20.2,16.2,20.2,16.2,20.2C16.2,20.2,16.2,20.2,16.2,20.2z"/>
	<g>
		<path class="st1" d="M12.3,14.2c1.5,2.2,3,4.7,3.9,6.2c0,0,0,0,0,0c0.9-1.5,2.5-4,3.9-6.3c1-1.5,1.8-2.7,2.4-3.6
			c0.1-0.2,0.3-0.3,0.4-0.5c0-0.1-0.1-0.2-0.1-0.3C22.5,9,22,8.3,21.5,7.7c-0.4-0.5-0.8-0.9-1.2-1.4c-0.3-0.4-0.7-0.7-1-1
			c-0.4-0.4-0.9-0.9-1.3-1.3c-0.8-0.9-1.5-1.8-1.7-2.7c0,0,0,0,0-0.1c0,0,0,0,0,0.1c-0.3,1-1,1.9-1.8,2.8c-0.4,0.4-0.8,0.9-1.3,1.3
			c-0.3,0.3-0.7,0.7-1,1.1c-0.4,0.4-0.8,0.9-1.2,1.4c-0.5,0.7-1,1.4-1.4,2.1c0,0.1-0.1,0.2-0.1,0.3c0.1,0.2,0.2,0.3,0.4,0.5
			C10.4,11.4,11.3,12.6,12.3,14.2z"/>
		<path class="st2" d="M27.2,13.3c-0.6-1.3-1.4-2.5-2.3-3.6c0,0,0,0-0.1,0c-0.2,0-0.8,0.7-1.5,1.7c-1.7,2.3-4.2,6.3-5.8,8.9
			c-0.8,1.4-1.4,2.3-1.4,2.3l0,0l0,0c0,0-0.6-0.9-1.4-2.3c-1.6-2.6-4.2-6.7-5.8-8.9c-0.7-1-1.3-1.6-1.5-1.6c0,0-0.1,0-0.1,0
			c-0.9,1.1-1.7,2.3-2.3,3.5c-0.7,1.6-1.2,3.3-1.2,5.3c0,0.2,0,0.4,0,0.6C4,21.3,4.6,23.3,5.7,25c0.5,0.8,1,1.5,1.7,2.1
			C9,28.8,11,30,13.2,30.6c0.9,0.2,1.9,0.4,2.9,0.4c0,0,0,0,0,0c1,0,2-0.1,2.9-0.4c2.3-0.6,4.3-1.8,5.9-3.4c0.6-0.6,1.2-1.4,1.7-2.1
			c1.1-1.7,1.7-3.7,1.8-5.9c0-0.2,0-0.3,0-0.5C28.4,16.7,28,14.9,27.2,13.3z"/>
	</g>
</g>
</svg>
