<?xml version="1.0" encoding="utf-8"?>
<!-- Generator: Adobe Illustrator 19.2.1, SVG Export Plug-In . SVG Version: 6.00 Build 0)  -->
<svg version="1.1" id="Layer_1" xmlns="http://www.w3.org/2000/svg" xmlns:xlink="http://www.w3.org/1999/xlink" x="0px" y="0px"
	 viewBox="0 0 67.7 29.8" style="enable-background:new 0 0 67.7 29.8;" xml:space="preserve">
<style type="text/css">
	.st0{fill:none;}
	.st1{fill:#A1CC5C;}
	.st2{fill:#74A333;}
	.st3{fill:#333333;}
</style>
<title>logo</title>
<path class="st0" d="M12.3,19.1L12.3,19.1L12.3,19.1z"/>
<path class="st1" d="M8.4,13.1c1.4,2.2,3,4.7,3.9,6.2l0,0c0.9-1.5,2.5-4,3.9-6.3c1-1.5,1.8-2.7,2.4-3.6L19,9l-0.1-0.3
	c-0.4-0.8-0.8-1.5-1.4-2.1c-0.4-0.5-0.8-0.9-1.2-1.4l-1-1c-0.5-0.4-0.9-0.9-1.3-1.3c-0.8-0.8-1.4-1.7-1.7-2.7c0,0,0,0,0-0.1
	s0,0,0,0.1c-0.4,1-1,2-1.8,2.7c-0.4,0.4-0.8,0.8-1.2,1.3s-0.7,0.7-1,1.1C7.9,5.5,7.4,6.1,7,6.6C6.5,7.2,6,7.9,5.6,8.7L5.5,8.9
	l0.4,0.5C6.5,10.3,7.3,11.5,8.4,13.1z"/>
<path class="st2" d="M23.3,12.2c-0.6-1.3-1.4-2.5-2.2-3.6c0,0-0.1,0-0.1,0c-0.6,0.4-1.2,1-1.5,1.7c-1.7,2.3-4.2,6.3-5.8,8.9
	c-0.8,1.4-1.4,2.3-1.4,2.3l0,0c0,0-0.6-0.9-1.4-2.3c-1.6-2.6-4.2-6.7-5.8-8.9C4.7,9.6,4.2,9,3.5,8.6c0,0-0.1,0-0.1,0
	c-0.9,1.1-1.6,2.3-2.2,3.6C0.4,13.8,0,15.6,0,17.5c0,0.2,0,0.4,0,0.6c0.1,2.1,0.7,4.1,1.8,5.8c0.5,0.8,1,1.5,1.7,2.1
	c1.6,1.7,3.6,2.8,5.9,3.4c0.9,0.2,1.9,0.4,2.9,0.4l0,0c1,0,2-0.1,2.9-0.4c5.3-1.3,9.1-5.9,9.3-11.4c0-0.2,0-0.3,0-0.5
	C24.5,15.7,24.1,13.8,23.3,12.2z"/>
<g>
	<path class="st3" d="M33.2,9.7c0.4,0,0.7,0,1.1,0.1c0.3,0.1,0.7,0.1,0.9,0.2c0.3,0.1,0.5,0.2,0.7,0.3c0.2,0.1,0.3,0.2,0.4,0.2
		l-0.8,1.4l-0.2-0.1c-0.1-0.1-0.3-0.2-0.5-0.3c-0.2-0.1-0.5-0.2-0.7-0.3s-0.5-0.1-0.8-0.1c-0.4,0-0.7,0.1-1,0.3s-0.4,0.5-0.4,0.8
		c0,0.5,0.2,0.9,0.5,1.2c0.3,0.3,0.8,0.6,1.4,0.8c0.4,0.2,0.8,0.3,1.1,0.5c0.3,0.2,0.6,0.4,0.9,0.6c0.2,0.2,0.4,0.5,0.5,0.8
		c0.1,0.3,0.2,0.7,0.2,1.1c0,0.4-0.1,0.8-0.2,1.2c-0.2,0.4-0.4,0.7-0.7,1c-0.3,0.3-0.7,0.5-1.1,0.7c-0.4,0.2-1,0.3-1.5,0.3
		c-0.4,0-0.8,0-1.2-0.1c-0.4-0.1-0.7-0.2-1-0.3c-0.3-0.1-0.6-0.2-0.8-0.3c-0.2-0.1-0.4-0.2-0.5-0.3l0.7-1.5l0.3,0.2
		c0.2,0.1,0.4,0.2,0.7,0.3c0.3,0.1,0.6,0.2,0.9,0.4c0.3,0.1,0.6,0.2,0.8,0.2c0.6,0,1-0.1,1.3-0.4c0.3-0.3,0.4-0.7,0.4-1.2
		c0-0.2,0-0.4-0.1-0.6c-0.1-0.2-0.2-0.3-0.3-0.5c-0.1-0.1-0.3-0.2-0.5-0.3c-0.2-0.1-0.4-0.2-0.7-0.3c-0.5-0.2-0.9-0.4-1.3-0.6
		c-0.4-0.2-0.7-0.4-1-0.7c-0.3-0.3-0.5-0.6-0.6-0.9s-0.2-0.7-0.2-1.2c0-0.4,0.1-0.8,0.3-1.1c0.2-0.3,0.4-0.6,0.7-0.9
		c0.3-0.3,0.7-0.5,1.1-0.6C32.3,9.7,32.7,9.7,33.2,9.7z"/>
	<path class="st3" d="M37.9,14.9c0.2-0.5,0.5-1,0.8-1.4s0.8-0.6,1.2-0.8c0.5-0.2,1-0.3,1.5-0.3c0.5,0,0.9,0.1,1.2,0.2
		c0.3,0.1,0.6,0.3,0.8,0.5c0.2,0.2,0.4,0.4,0.5,0.7c0.1,0.3,0.2,0.6,0.2,0.9c0,0.4-0.1,0.7-0.3,1.1c-0.2,0.3-0.5,0.6-0.9,0.9
		c-0.4,0.3-0.9,0.5-1.4,0.6c-0.6,0.2-1.2,0.2-1.9,0.2c0,0.2,0.1,0.5,0.2,0.7c0.1,0.2,0.2,0.4,0.3,0.6c0.1,0.2,0.3,0.3,0.5,0.4
		c0.2,0.1,0.5,0.1,0.8,0.1c0.2,0,0.5,0,0.7-0.1c0.3-0.1,0.5-0.1,0.7-0.2c0.3-0.1,0.5-0.2,0.8-0.3l0.5,1.1c-0.3,0.1-0.6,0.3-0.9,0.4
		c-0.3,0.1-0.6,0.2-1,0.3c-0.4,0.1-0.7,0.1-1.1,0.1c-0.6,0-1.1-0.1-1.6-0.3c-0.4-0.2-0.8-0.4-1.1-0.8s-0.5-0.7-0.6-1.2
		c-0.1-0.5-0.2-1-0.2-1.6C37.6,16.1,37.7,15.5,37.9,14.9z M40.5,14c-0.2,0.2-0.4,0.4-0.5,0.6c-0.1,0.3-0.2,0.6-0.3,0.9
		c-0.1,0.3-0.1,0.7-0.1,1c0.5,0,0.9-0.1,1.3-0.2s0.6-0.2,0.9-0.4c0.2-0.2,0.4-0.3,0.5-0.5s0.2-0.4,0.2-0.6c0-0.3-0.1-0.6-0.3-0.7
		c-0.2-0.2-0.4-0.3-0.7-0.3C41,13.7,40.7,13.8,40.5,14z"/>
	<path class="st3" d="M45.5,14.9c0.2-0.5,0.5-1,0.8-1.4s0.8-0.6,1.2-0.8c0.5-0.2,1-0.3,1.5-0.3c0.5,0,0.9,0.1,1.2,0.2
		c0.3,0.1,0.6,0.3,0.8,0.5c0.2,0.2,0.4,0.4,0.5,0.7c0.1,0.3,0.2,0.6,0.2,0.9c0,0.4-0.1,0.7-0.3,1.1c-0.2,0.3-0.5,0.6-0.9,0.9
		C50,17,49.5,17.2,49,17.3c-0.6,0.2-1.2,0.2-1.9,0.2c0,0.2,0.1,0.5,0.2,0.7c0.1,0.2,0.2,0.4,0.3,0.6c0.1,0.2,0.3,0.3,0.5,0.4
		c0.2,0.1,0.5,0.1,0.8,0.1c0.2,0,0.5,0,0.7-0.1c0.3-0.1,0.5-0.1,0.7-0.2c0.3-0.1,0.5-0.2,0.8-0.3l0.5,1.1c-0.3,0.1-0.6,0.3-0.9,0.4
		c-0.3,0.1-0.6,0.2-1,0.3c-0.4,0.1-0.7,0.1-1.1,0.1c-0.6,0-1.1-0.1-1.6-0.3c-0.4-0.2-0.8-0.4-1.1-0.8s-0.5-0.7-0.6-1.2
		c-0.1-0.5-0.2-1-0.2-1.6C45.2,16.1,45.3,15.5,45.5,14.9z M48,14c-0.2,0.2-0.4,0.4-0.5,0.6c-0.1,0.3-0.2,0.6-0.3,0.9
		c-0.1,0.3-0.1,0.7-0.1,1c0.5,0,0.9-0.1,1.3-0.2s0.6-0.2,0.9-0.4c0.2-0.2,0.4-0.3,0.5-0.5s0.2-0.4,0.2-0.6c0-0.3-0.1-0.6-0.3-0.7
		c-0.2-0.2-0.4-0.3-0.7-0.3C48.5,13.7,48.2,13.8,48,14z"/>
	<path class="st3" d="M58.9,20.7c0,0-0.1-0.1-0.1-0.2c-0.1-0.1-0.2-0.2-0.2-0.4c-0.1-0.2-0.2-0.4-0.3-0.6c-0.1-0.2-0.1-0.5-0.2-0.8
		c-0.2,0.6-0.5,1.1-0.9,1.4c-0.4,0.3-0.9,0.5-1.6,0.5c-0.5,0-0.9-0.1-1.3-0.3c-0.4-0.2-0.7-0.5-0.9-0.8c-0.2-0.3-0.4-0.8-0.5-1.2
		s-0.2-1-0.2-1.6c0-0.6,0.1-1.2,0.3-1.7s0.4-1,0.8-1.3c0.3-0.4,0.7-0.7,1.2-0.9c0.5-0.2,1-0.3,1.5-0.3c0.2,0,0.4,0,0.6,0
		c0.2,0,0.4,0,0.6,0.1V9l1.8,0.3v7.4c0,0.6,0,1.2,0.1,1.6c0.1,0.4,0.2,0.8,0.3,1c0.1,0.3,0.2,0.4,0.3,0.6c0.1,0.1,0.1,0.2,0.1,0.2
		L58.9,20.7z M56.7,19.1c0.2-0.2,0.4-0.4,0.6-0.7c0.2-0.3,0.3-0.6,0.4-1c0.1-0.4,0.1-0.8,0.1-1.1V14c-0.1,0-0.3-0.1-0.5-0.1
		c-0.2,0-0.4-0.1-0.6-0.1c-0.4,0-0.7,0.1-1,0.2c-0.3,0.1-0.5,0.3-0.6,0.6s-0.3,0.5-0.3,0.9c-0.1,0.3-0.1,0.7-0.1,1.1
		c0,0.4,0,0.7,0,1.1s0.1,0.6,0.2,0.9c0.1,0.3,0.2,0.5,0.4,0.6c0.2,0.2,0.4,0.2,0.7,0.2C56.2,19.4,56.4,19.3,56.7,19.1z"/>
	<path class="st3" d="M64.1,12.5c0.3,0,0.6,0,0.9,0.1c0.3,0.1,0.6,0.1,0.8,0.2c0.3,0.1,0.5,0.2,0.8,0.3L66,14.3
		c-0.2-0.1-0.4-0.2-0.6-0.3c-0.2-0.1-0.4-0.1-0.6-0.2c-0.2-0.1-0.4-0.1-0.6-0.1c-0.2,0-0.5,0.1-0.6,0.2s-0.3,0.3-0.3,0.5
		c0,0.6,0.4,1.1,1.3,1.4c0.3,0.1,0.6,0.3,0.9,0.4c0.3,0.1,0.5,0.3,0.7,0.5c0.2,0.2,0.3,0.4,0.4,0.7c0.1,0.2,0.1,0.5,0.1,0.9
		c0,0.3-0.1,0.6-0.2,0.9c-0.1,0.3-0.3,0.5-0.5,0.8c-0.2,0.2-0.5,0.4-0.9,0.5c-0.3,0.1-0.7,0.2-1.2,0.2c-0.4,0-0.7,0-1-0.1
		c-0.3-0.1-0.6-0.2-0.9-0.3c-0.3-0.1-0.5-0.2-0.6-0.3L61.1,20l0.6-1.3l0.2,0.1c0.1,0.1,0.3,0.2,0.5,0.3c0.2,0.1,0.4,0.2,0.7,0.3
		c0.2,0.1,0.5,0.1,0.7,0.1c0.4,0,0.6-0.1,0.8-0.2s0.3-0.3,0.3-0.6c0-0.3-0.1-0.5-0.3-0.8c-0.2-0.2-0.5-0.4-0.9-0.6
		c-0.8-0.3-1.4-0.7-1.8-1.1c-0.4-0.4-0.5-0.9-0.5-1.5c0-0.3,0.1-0.6,0.2-0.9c0.1-0.3,0.3-0.5,0.6-0.7c0.2-0.2,0.5-0.4,0.9-0.5
		C63.3,12.5,63.7,12.5,64.1,12.5z"/>
</g>
</svg>
