<svg id="Layer_1" data-name="Layer 1" xmlns="http://www.w3.org/2000/svg" viewBox="0 0 24.53 29.78"><defs><style>.cls-1{fill:none;}.cls-2{fill:#a1cc5c;}.cls-3{fill:#74a333;}</style></defs><title>logo</title><path class="cls-1" d="M16.23,20.18h0l0,0Z" transform="translate(-3.9 -1.13)"/><path class="cls-2" d="M12.26,14.19c1.45,2.22,3,4.69,3.93,6.23h0c0.94-1.54,2.46-4,3.91-6.25,1-1.53,1.82-2.74,2.44-3.6l0.36-.48-0.12-.27a11.06,11.06,0,0,0-1.36-2.14c-0.39-.48-0.8-0.95-1.23-1.39l-1-1c-0.45-.45-0.89-0.89-1.29-1.33a7,7,0,0,1-1.72-2.73s0,0,0-.06,0,0,0,.06A7.3,7.3,0,0,1,14.4,3.94c-0.4.43-.82,0.85-1.25,1.29s-0.69.69-1,1.06-0.85.91-1.24,1.4A11,11,0,0,0,9.51,9.81l-0.12.26,0.38,0.5C10.42,11.44,11.25,12.65,12.26,14.19Z" transform="translate(-3.9 -1.13)"/><path class="cls-3" d="M27.23,13.31A18.12,18.12,0,0,0,25,9.74a0.08,0.08,0,0,0-.08,0,4.84,4.84,0,0,0-1.53,1.66c-1.66,2.27-4.19,6.34-5.75,8.9-0.83,1.36-1.39,2.29-1.4,2.29h0s-0.57-.92-1.4-2.28c-1.58-2.56-4.16-6.67-5.84-8.93A4.72,4.72,0,0,0,7.44,9.72a0.08,0.08,0,0,0-.08,0A18,18,0,0,0,5.11,13.3,12.42,12.42,0,0,0,3.9,18.61c0,0.19,0,.37,0,0.56A12.15,12.15,0,0,0,5.71,25a12.64,12.64,0,0,0,1.66,2.13,12.33,12.33,0,0,0,5.87,3.38,12.17,12.17,0,0,0,2.9.36h0a12.4,12.4,0,0,0,2.94-.36,12.29,12.29,0,0,0,9.32-11.39c0-.17,0-0.33,0-0.5A12.28,12.28,0,0,0,27.23,13.31Z" transform="translate(-3.9 -1.13)"/></svg>