<?xml version="1.0" encoding="utf-8"?>
<!-- Generator: Adobe Illustrator 19.2.1, SVG Export Plug-In . SVG Version: 6.00 Build 0)  -->
<svg version="1.1" id="Layer_1" xmlns="http://www.w3.org/2000/svg" xmlns:xlink="http://www.w3.org/1999/xlink" x="0px" y="0px"
	 viewBox="0 0 16 16" style="enable-background:new 0 0 16 16;" xml:space="preserve">
<style type="text/css">
	.st0{fill:#FFFFFF;}
</style>
<path class="st0" d="M3.2,12.8c-0.2,0-0.3-0.2-0.3-0.3c0,0,0-0.5,0.7-1.1c0.8-0.6,1.6-0.7,2.3-1C6.6,10,6.6,9.5,6.5,8.9
	c0-0.4-0.1-0.5-0.3-1c-0.4-0.8-0.5-1.4-0.6-2c-0.1-0.9,0-2.1,0.6-2.8c0.6-0.7,1.5-0.8,1.5-0.8l0.3,0l0.3,0c0,0,0.9,0.1,1.5,0.8
	c0.6,0.7,0.7,1.9,0.6,2.8c-0.1,0.6-0.2,1.2-0.6,2c-0.3,0.5-0.3,0.6-0.3,1c0,0.6,0,1.1,0.6,1.5c0.7,0.4,1.5,0.5,2.3,1
	c0.7,0.5,0.8,1.1,0.8,1.1c0,0.2-0.2,0.3-0.3,0.3C13,12.8,3.2,12.8,3.2,12.8z"/>
</svg>
