<?xml version="1.0" encoding="utf-8"?>
<!-- Generator: Adobe Illustrator 19.2.1, SVG Export Plug-In . SVG Version: 6.00 Build 0)  -->
<svg version="1.1" id="Layer_1" xmlns="http://www.w3.org/2000/svg" xmlns:xlink="http://www.w3.org/1999/xlink" x="0px" y="0px"
	 viewBox="0 0 381 416" style="enable-background:new 0 0 381 416;" xml:space="preserve">
<style type="text/css">
	.st0{fill:#FFFFFF;}
</style>
<g>
	<path class="st0" d="M192.6,247.1c-0.1,0-0.3,0-0.4,0c0.1,0.1,0.1,0.2,0.2,0.3C192.5,247.3,192.5,247.2,192.6,247.1z"/>
	<g>
		<path class="st0" d="M145.7,176.2c17.2,26.3,35.3,55.4,46.5,73.6c0.1,0,0.3,0,0.4,0c11.1-18.2,29.1-47.6,46.2-73.9
			c11.7-18.1,21.5-32.4,28.9-42.5c1.5-2.1,3-4,4.3-5.7c-0.5-1.1-0.9-2.1-1.4-3.2c-4.3-9.1-9.9-17.5-16.1-25.3
			C249.9,93.5,245,88,240,82.8c-4-4.2-8.1-8.3-12-12.3c-5.3-5.3-10.5-10.5-15.3-15.7c-9.5-10.4-17.2-21-20.3-32.3
			c-0.1-0.2-0.1-0.5-0.2-0.7c-0.1,0.2-0.1,0.5-0.2,0.7c-3.3,11.4-11.3,22.1-21,32.6c-4.7,5.1-9.7,10.1-14.8,15.2
			c-4.1,4-8.2,8.2-12.3,12.5c-5,5.3-10,10.7-14.6,16.5c-6.2,7.8-11.8,16.1-16.1,25.2c-0.5,1-0.9,2.1-1.4,3.1
			c1.4,1.8,2.9,3.7,4.5,5.9C124,143.7,133.8,158,145.7,176.2z"/>
		<path class="st0" d="M322.7,165.8c-7.1-15.2-16.4-29.1-26.7-42.1c-0.2-0.3-0.5-0.4-0.9-0.4c-2.7,0-9.4,7.7-18.1,19.6
			c-19.6,26.8-49.5,75-68,105.2c-9.8,16.1-16.4,27.1-16.5,27.1l0,0l0,0c-0.1,0-6.7-10.9-16.6-26.9c-18.7-30.3-49.2-78.8-69-105.6
			c-8.7-11.8-15.4-19.3-18.1-19.3c-0.4,0-0.7,0.1-0.9,0.4c-10.3,12.9-19.6,26.8-26.7,41.9c-8.8,18.7-14.2,39.4-14.3,62.8
			c0,2.2,0,4.4,0.1,6.6c1.1,25.3,8.7,49,21.3,69.4c5.6,9.1,12.2,17.5,19.6,25.2c18.7,19.2,42.6,33.4,69.4,40
			c11,2.7,22.5,4.2,34.3,4.2c0.1,0,0.2,0,0.3,0c12,0,23.6-1.5,34.7-4.2c26.8-6.6,50.7-20.7,69.4-40c7.4-7.6,14-16.1,19.6-25.2
			c12.5-20.4,20.2-44.1,21.2-69.4c0.1-2,0.1-3.9,0.1-5.9C337,205.6,331.6,184.7,322.7,165.8z"/>
	</g>
</g>
</svg>
