<?xml version="1.0" encoding="utf-8"?>
<!-- Generator: Adobe Illustrator 19.2.1, SVG Export Plug-In . SVG Version: 6.00 Build 0)  -->
<svg version="1.1" id="Layer_1" xmlns="http://www.w3.org/2000/svg" xmlns:xlink="http://www.w3.org/1999/xlink" x="0px" y="0px"
	 viewBox="0 0 24.5 29.8" style="enable-background:new 0 0 24.5 29.8;" xml:space="preserve">
<style type="text/css">
	.st0{fill:#FFFFFF;}
</style>
<title>logo</title>
<path class="st0" d="M12.3,19.1L12.3,19.1L12.3,19.1z"/>
<path class="st0" d="M8.4,13.1c1.4,2.2,3,4.7,3.9,6.2l0,0c0.9-1.5,2.5-4,3.9-6.3c1-1.5,1.8-2.7,2.4-3.6L19,9l-0.1-0.3
	c-0.4-0.8-0.8-1.5-1.4-2.1c-0.4-0.5-0.8-0.9-1.2-1.4l-1-1c-0.5-0.4-0.9-0.9-1.3-1.3c-0.8-0.8-1.4-1.7-1.7-2.7c0,0,0,0,0-0.1
	s0,0,0,0.1c-0.4,1-1,2-1.8,2.7c-0.4,0.4-0.8,0.8-1.2,1.3s-0.7,0.7-1,1.1C7.9,5.5,7.4,6.1,7,6.6C6.5,7.2,6,7.9,5.6,8.7L5.5,8.9
	l0.4,0.5C6.5,10.3,7.3,11.5,8.4,13.1z"/>
<path class="st0" d="M23.3,12.2c-0.6-1.3-1.4-2.5-2.2-3.6c0,0-0.1,0-0.1,0c-0.6,0.4-1.2,1-1.5,1.7c-1.7,2.3-4.2,6.3-5.8,8.9
	c-0.8,1.4-1.4,2.3-1.4,2.3l0,0c0,0-0.6-0.9-1.4-2.3c-1.6-2.6-4.2-6.7-5.8-8.9C4.7,9.6,4.2,9,3.5,8.6c0,0-0.1,0-0.1,0
	c-0.9,1.1-1.6,2.3-2.2,3.6C0.4,13.8,0,15.6,0,17.5c0,0.2,0,0.4,0,0.6c0.1,2.1,0.7,4.1,1.8,5.8c0.5,0.8,1,1.5,1.7,2.1
	c1.6,1.7,3.6,2.8,5.9,3.4c0.9,0.2,1.9,0.4,2.9,0.4l0,0c1,0,2-0.1,2.9-0.4c5.3-1.3,9.1-5.9,9.3-11.4c0-0.2,0-0.3,0-0.5
	C24.5,15.7,24.1,13.8,23.3,12.2z"/>
</svg>
