<?xml version="1.0" encoding="utf-8"?>
<!-- Generator: Adobe Illustrator 23.0.2, SVG Export Plug-In . SVG Version: 6.00 Build 0)  -->
<svg version="1.1" id="Layer_1" xmlns="http://www.w3.org/2000/svg" xmlns:xlink="http://www.w3.org/1999/xlink" x="0px" y="0px"
	 viewBox="0 0 280.1 96.9" style="enable-background:new 0 0 280.1 96.9;" xml:space="preserve">
<style type="text/css">
	.st0{fill:#FFFFFF;}
	.st1{font-family:'FedraSans-Bold';}
	.st2{font-size:61.9526px;}
	.st3{fill:none;stroke:#FFFFFF;stroke-width:5;stroke-miterlimit:10;}
</style>
<text transform="matrix(0.9684 0 0 1 99.0403 80.8389)" class="st0 st1 st2">seeds</text>
<g>
	<g>
		<path class="st0" d="M82,10.8L82,10.8 M82,10.8L75.5,78l-43.9-4.3L16.7,40.9l-1.3-2.7L82,10.8 M82,5.8c-0.1,0-0.1,0-0.2,0
			c-0.6,0-1.3,0.2-1.8,0.4L13.6,33.6c-1.3,0.5-2.2,1.5-2.7,2.8c-0.6,1.2-0.5,2.6,0,3.9l1.3,2.7L27,75.8c0.7,1.6,2.3,2.7,4.1,2.9
			L75,83c0.2,0,0.3,0,0.5,0c1.2,0,2.3-0.4,3.2-1.1c1-0.8,1.7-2.1,1.8-3.4L87,11.4c0-0.2,0-0.4,0-0.7C87,8.1,84.8,5.8,82,5.8L82,5.8
			L82,5.8z M82,15.8L82,15.8L82,15.8L82,15.8z"/>
	</g>
	<polyline class="st3" points="75.5,78 57.8,42.3 82,10.8 	"/>
	<line class="st3" x1="15.5" y1="38.2" x2="59.2" y2="42.1"/>
</g>
</svg>
